<svg width="286" height="41" viewBox="0 0 286 41" fill="none" xmlns="http://www.w3.org/2000/svg">
<path fill-rule="evenodd" clip-rule="evenodd" d="M31.1785 26.8838L30.8555 27.7128C30.1719 29.24 28.8718 31.0585 26.7652 33.3768C17.8172 43.2371 11.9087 43.4671 19.3107 34.444C19.3107 34.444 27.5013 27.1965 19.0156 16.3914C12.2989 7.83661 17.6221 9.22159 20.9862 12.3324C22.3486 13.59 25.1503 16.2027 27.4423 18.6798C30.2654 21.7327 32.213 23.6637 31.1785 26.8838ZM12.2431 31.3812C12.2431 31.3812 17.0368 26.6322 12.0628 19.5469C8.12817 13.9375 11.2431 14.8475 13.2153 16.8878C14.0137 17.7135 15.6564 19.4261 16.9991 21.051C19.5238 24.1055 20.8518 25.4491 16.6089 30.6846C11.3759 37.1445 7.91505 37.2934 12.2431 31.3812ZM2.47215 28.4855C2.47215 28.4855 8.39048 26.0928 2.30821 22.565C-2.50351 19.7736 1.32455 20.2154 3.73943 21.2297C4.71653 21.64 6.72646 22.4906 8.36917 23.298C11.4595 24.8187 13.0874 25.4855 7.84455 28.1198C1.37537 31.3696 -2.88058 31.459 2.47215 28.4855ZM201.597 13.4626C202.858 13.4626 204.186 13.6115 205.581 13.9093C206.978 14.2072 208.228 14.606 209.338 15.1057C209.338 16.8845 209.237 18.842 209.027 20.9765L208.932 21.9031L206.592 22.2788L203.579 18.9032C202.799 18.6533 201.656 18.5292 200.156 18.5292C199.917 18.5292 199.436 18.5574 198.716 18.6202C198.63 18.8089 198.584 19.1067 198.584 19.5138C198.584 19.9523 198.702 20.3328 198.941 20.6621C199.18 20.9881 199.608 21.3488 200.226 21.741C200.838 22.1331 201.825 22.6858 203.172 23.4056C205.153 24.4067 206.643 25.2754 207.651 26.0051C208.656 26.7431 209.36 27.4844 209.766 28.2356C210.173 28.9852 210.373 29.8903 210.373 30.9526C210.373 33.5174 209.435 35.5196 207.563 36.9592C205.684 38.3938 203.097 39.1152 199.798 39.1152C197.425 39.1152 194.68 38.6767 191.56 37.8014C191.729 34.9421 191.911 32.7761 192.105 31.3051L192.146 31.0006L194.711 30.486L197.548 33.625C198.536 33.9394 199.646 34.0949 200.876 34.0949C201.567 34.0949 202.107 34.0502 202.499 33.9542C202.585 33.7077 202.631 33.3619 202.631 32.9217C202.645 32.5922 202.559 32.2664 202.385 31.9868C202.222 31.737 201.851 31.4408 201.282 31.0933C200.713 30.7508 199.721 30.2196 198.312 29.5031C196.544 28.5318 195.19 27.6631 194.262 26.8986C193.334 26.1342 192.665 25.3432 192.26 24.5291C191.851 23.7167 191.652 22.7487 191.652 21.6235C191.652 19.1216 192.542 17.1393 194.329 15.6683C196.113 14.2006 198.536 13.4626 201.597 13.4626ZM119.642 13.4626C119.904 14.0897 120.122 14.7946 120.29 15.5806L120.408 16.1829V31.5632C120.408 32.1275 120.452 32.5163 120.544 32.7364C120.644 32.9479 120.798 33.1289 120.99 33.2609L121.175 33.3933L122.973 34.4738L122.837 37.3778C121.368 37.7582 119.882 38.0647 118.383 38.2962C116.702 38.5609 115.142 38.7231 113.704 38.7843C113.583 38.412 113.447 37.9421 113.297 37.3778C113.269 37.1604 113.221 36.9461 113.155 36.7374L113.073 36.4876H112.935C111.706 37.2388 110.41 37.8395 109.046 38.2962C107.679 38.7462 106.44 38.9746 105.331 38.9746C102.933 38.9746 101.144 38.23 99.9754 36.7457C98.8786 35.3558 98.2966 33.2957 98.2294 30.5721L98.2212 30.0177V21.6235C98.2212 20.9335 98.1671 20.4884 98.0638 20.2865C97.9753 20.1161 97.7786 19.9307 97.472 19.7305L97.2753 19.6081L95.2506 18.4812L95.4735 14.9634C95.8965 14.9021 96.1949 14.8409 96.3769 14.7747C96.7048 14.7135 97.8835 14.4967 99.9082 14.1178C101.933 13.7455 103.62 13.5287 104.971 13.4626C105.233 14.0897 105.449 14.7946 105.618 15.5806L105.735 16.1829V28.0007C105.735 29.3774 105.772 30.3437 105.848 30.9063C105.923 31.4706 106.163 31.8991 106.571 32.197C106.974 32.4948 107.673 32.6437 108.661 32.6437C109.922 32.6437 111.148 32.4402 112.338 32.0315L112.847 31.8462V21.6235C112.847 20.9335 112.804 20.4884 112.71 20.2865C112.637 20.1161 112.456 19.9307 112.173 19.7305L111.991 19.6081L110.014 18.4812L110.192 14.9634C112.622 14.4967 114.52 14.136 115.886 13.8862C117.25 13.638 118.503 13.4957 119.642 13.4626ZM223.4 13.3219C226.098 13.3219 228.993 13.9623 232.089 15.2463C232.026 16.1531 231.892 17.3478 231.68 18.8337C231.513 20.0218 231.336 21.1337 231.148 22.1728L231.007 22.9357L227.99 23.2153L225.2 19.5121C224.37 19.349 223.526 19.2703 222.68 19.2771C221.929 19.2771 221.237 19.3235 220.608 19.4178C219.916 20.7945 219.575 22.7338 219.575 25.234C219.575 27.7988 220.011 29.6951 220.878 30.9311C221.747 32.1655 223.07 32.7844 224.839 32.7844C225.68 32.7844 226.701 32.652 227.9 32.3856C228.857 32.1705 229.838 31.8842 230.838 31.5219L231.592 31.2356L232.674 35.925C231.472 36.802 229.975 37.5168 228.192 38.0827C226.408 38.6453 224.629 38.9282 222.859 38.9282C219.378 38.9282 216.678 37.8097 214.757 35.5742C212.835 33.3404 211.878 30.251 211.878 26.3112C211.878 22.2175 212.904 19.0289 214.963 16.7438C217.016 14.462 219.827 13.3219 223.4 13.3219ZM135.844 13.3219C139.235 13.3219 141.837 14.4471 143.651 16.6975C145.373 18.832 146.238 21.8187 146.248 25.6626L146.242 26.3112L132.559 28.9372C132.979 30.2511 133.572 31.2108 134.336 31.8214C135.103 32.4303 136.115 32.7364 137.376 32.7364C138.245 32.7364 139.281 32.604 140.481 32.3393C141.44 32.1242 142.41 31.8478 143.389 31.5053L144.125 31.2356L145.161 35.8803C144.05 36.754 142.61 37.4705 140.84 38.0331C139.071 38.599 137.285 38.8803 135.485 38.8803C131.975 38.8803 129.267 37.7716 127.362 35.5477C125.454 33.3304 124.503 30.2693 124.503 26.3576C124.503 23.6389 124.968 21.3008 125.898 19.3483C126.829 17.3958 128.147 15.9016 129.861 14.869C131.569 13.8382 133.564 13.3219 135.844 13.3219ZM274.802 13.3219C278.191 13.3219 280.796 14.4471 282.609 16.6975C284.331 18.832 285.195 21.8187 285.204 25.6626L285.199 26.3112L271.517 28.9372C271.937 30.2511 272.53 31.2108 273.294 31.8214C274.06 32.4303 275.073 32.7364 276.332 32.7364C277.201 32.7364 278.234 32.604 279.439 32.3393C280.398 32.1242 281.368 31.8478 282.347 31.5053L283.083 31.2356L284.117 35.8803C283.008 36.754 281.568 37.4705 279.798 38.0331C278.027 38.599 276.24 38.8803 274.443 38.8803C270.93 38.8803 268.225 37.7716 266.317 35.5477C264.412 33.3304 263.461 30.2693 263.461 26.3576C263.461 23.6389 263.925 21.3008 264.854 19.3483C265.784 17.3958 267.107 15.9016 268.813 14.869C270.527 13.8382 272.522 13.3219 274.802 13.3219ZM83.5024 13.3219C86.8961 13.3219 89.4962 14.4471 91.3127 16.6975C93.0341 18.832 93.8981 21.8187 93.9079 25.6626L93.9013 26.3112L80.2203 28.9372C80.6384 30.2511 81.2318 31.2108 81.9975 31.8214C82.7631 32.4303 83.773 32.7364 85.032 32.7364C85.9026 32.7364 86.9403 32.604 88.1388 32.3393C89.0995 32.1242 90.07 31.8478 91.0487 31.5053L91.7848 31.2356L92.821 35.8803C91.7111 36.754 90.2684 37.4721 88.4994 38.0331C86.7288 38.599 84.9452 38.8803 83.1451 38.8803C79.635 38.8803 76.9267 37.7716 75.0217 35.5477C73.1134 33.3304 72.1642 30.2693 72.1642 26.3576C72.1642 23.6406 72.6281 21.3008 73.5577 19.3483C74.4889 17.3958 75.807 15.9016 77.5185 14.869C79.2285 13.8382 81.2236 13.3219 83.5024 13.3219ZM168.933 2.44398C170.535 2.44398 172.284 2.59952 174.184 2.9106L175.007 3.05456L173.974 9.43174C172.845 9.09695 171.695 8.83716 170.531 8.65403C169.799 8.55097 169.061 8.49515 168.321 8.48691L167.58 8.49353V14.0268L171.302 13.9606V19.388L167.58 19.3715V31.4722C167.58 32.1275 167.626 32.5643 167.718 32.786C167.792 32.9664 167.98 33.1583 168.285 33.3619L168.482 33.486L171.272 35.0827L171.136 38.3177H157.005L156.872 34.0039L160.019 33.0177V19.2788L156.872 19.2308V14.6357L160.019 14.4488V11.3992C160.019 8.58619 160.81 6.39207 162.383 4.81184C163.961 3.23492 166.141 2.44563 168.935 2.44563L168.933 2.44398ZM186.517 13.7008V31.4722C186.517 32.1291 186.563 32.5643 186.654 32.786C186.731 32.968 186.919 33.16 187.224 33.3652L187.421 33.4876L189.624 34.7998L189.493 38.3193H175.987L175.764 34.0055L178.96 33.0193V21.6251C178.96 20.9351 178.893 20.4768 178.756 20.2402C178.642 20.04 178.366 19.81 177.932 19.5502L177.701 19.4178L175.912 19.4112V13.8878L186.519 13.6992L186.517 13.7008ZM244.065 2.44563C244.278 3.04463 244.447 3.685 244.566 4.36507L244.648 4.88465V15.5739C246.299 14.7962 247.704 14.2221 248.857 13.863C249.971 13.5101 251.132 13.3288 252.299 13.3252C256.852 13.3252 259.19 16.1365 259.313 21.7592L259.318 22.2341V31.4722C259.318 32.1291 259.364 32.5643 259.454 32.786C259.531 32.968 259.72 33.16 260.023 33.3652L260.22 33.4876L262.38 34.7998L262.203 38.3193H249.78L249.553 33.8649L251.76 33.208V24.2975C251.76 22.9208 251.722 21.9462 251.645 21.3687C251.573 20.7862 251.326 20.3428 250.908 20.0284C250.483 19.7189 249.78 19.5617 248.789 19.5617C247.924 19.5617 246.721 19.6991 245.175 19.9771L244.648 20.0764V31.4722C244.648 32.1291 244.696 32.5643 244.784 32.786C244.86 32.968 245.038 33.16 245.322 33.3652L245.506 33.4876L247.709 34.7998L247.529 38.3193H234.479L234.254 33.8649L237.041 33.021V10.5569C237.041 9.86857 236.999 9.42346 236.907 9.21993C236.833 9.05116 236.654 8.86583 236.371 8.66396L236.189 8.54151L234.21 7.461L234.343 3.8968L235.738 3.66348C239.697 2.91226 242.473 2.50851 244.066 2.44398L244.065 2.44563ZM60.8652 13.3219C65.5081 13.3219 67.8918 16.1349 68.0164 21.7575L68.0213 22.2324V31.4242C68.0213 32.0811 68.0673 32.5163 68.1574 32.7364C68.2328 32.9184 68.4214 33.1137 68.7263 33.3155L68.923 33.4396L71.0838 34.7502L70.9018 38.2697H58.4799L58.2569 33.8153L60.462 33.16V24.2958C60.462 22.8893 60.4177 21.9015 60.3259 21.3389C60.2357 20.7796 59.9882 20.3411 59.5832 20.0267C59.1799 19.7173 58.4651 19.5601 57.447 19.5601C56.4863 19.5601 55.2994 19.6941 53.8895 19.9655L53.3501 20.073V31.4242C53.3501 32.0811 53.396 32.5163 53.4862 32.7364C53.5632 32.9184 53.7419 33.1137 54.0256 33.3155L54.2075 33.4396L56.4126 34.7485L56.2322 38.268H43.1824L42.9529 33.8136L45.7448 32.9681V21.6218C45.7448 20.9335 45.7006 20.4867 45.6087 20.2848C45.5366 20.1144 45.3546 19.9307 45.0727 19.7289L44.8923 19.6064L42.9086 18.4796L43.0463 14.9634L44.0349 14.7731C47.9646 13.9606 50.8008 13.5254 52.5402 13.4626C52.7812 14.1162 52.9747 14.8393 53.1255 15.6203C54.9568 14.7433 56.4486 14.1426 57.6044 13.8134C58.6645 13.4993 59.7622 13.3334 60.8669 13.3203L60.8652 13.3219ZM135.443 18.9512C134.571 18.9512 133.746 19.072 132.964 19.3235C132.399 20.7148 132.107 22.2032 132.102 23.7067L132.108 24.2958L138.859 22.3731C138.8 21.185 138.479 20.3179 137.892 19.7686C137.307 19.2225 136.492 18.9512 135.443 18.9512ZM274.396 18.9512C273.557 18.945 272.722 19.0706 271.922 19.3235C271.355 20.7141 271.062 22.203 271.059 23.7067L271.066 24.2958L277.817 22.3731C277.758 21.185 277.437 20.3179 276.85 19.7686C276.265 19.2225 275.447 18.9512 274.396 18.9512ZM83.0992 18.9512C82.2593 18.9454 81.4237 19.071 80.622 19.3235C80.0572 20.7147 79.765 22.2033 79.7613 23.7067L79.7678 24.2958L86.5206 22.3731C86.4583 21.185 86.137 20.3179 85.5534 19.7686C84.9665 19.2225 84.15 18.9512 83.0992 18.9512ZM186.104 0L188.137 7.50733L179.907 9.77922L177.878 2.22059L186.104 0Z" fill="white"/>
</svg>
