<svg width="101" height="158" viewBox="0 0 101 158" fill="none" xmlns="http://www.w3.org/2000/svg">
<path d="M91.4608 82.3991L91.6638 82.4572C100.03 85.0177 101.677 96.1636 94.3278 101.004L12.4851 154.882L12.4826 154.883C10.8374 155.97 8.79323 156.282 6.89741 155.738L6.89607 155.738C2.02059 154.343 0.376611 148.3 3.85573 144.647L3.85655 144.646L42.857 103.649L42.9205 103.583L42.9777 103.51C45.5377 100.268 43.9709 95.4933 40.0268 94.3635C40.0253 94.3631 40.0238 94.3626 40.0222 94.3622L13.7708 86.7573L13.7706 86.7573C6.19023 84.5619 3.6768 75.1174 9.16038 69.4668L69.9434 7.0542L69.9454 7.05212C74.2255 2.64455 80.5983 0.955827 86.5155 2.64311C98.7731 6.145 102.72 21.4895 93.6782 30.4373L93.678 30.4375L59.4873 64.279C59.4861 64.2801 59.4849 64.2813 59.4837 64.2825C56.3097 67.3996 57.7071 72.7403 61.9634 73.9576C61.9636 73.9576 61.9638 73.9577 61.9639 73.9577L91.4608 82.3991Z" stroke="url(#paint0_linear_3_240)" stroke-width="4"/>
<defs>
<linearGradient id="paint0_linear_3_240" x1="50.5" y1="0" x2="50.5" y2="158" gradientUnits="userSpaceOnUse">
<stop stop-color="#FFE537"/>
<stop offset="1" stop-color="#537FE7"/>
</linearGradient>
</defs>
</svg>
