<svg width="33" height="32" viewBox="0 0 33 32" fill="none" xmlns="http://www.w3.org/2000/svg">
<path d="M30.475 24.9823L25.4072 19.9145L21.5093 18.3041C22.8072 16.4583 23.5025 14.2564 23.5 12C23.5 5.93456 18.5654 1 12.5 1C6.43456 1 1.5 5.93456 1.5 12C1.5 18.0654 6.43456 23 12.5 23C14.776 23.0026 16.9962 22.2952 18.8512 20.9764L20.4574 24.8639L25.525 29.9319C25.85 30.257 26.2358 30.5148 26.6605 30.6907C27.0851 30.8666 27.5403 30.9572 27.9999 30.9572C28.4595 30.9572 28.9147 30.8667 29.3393 30.6908C29.764 30.5149 30.1498 30.2571 30.4748 29.9321C30.7999 29.6071 31.0577 29.2213 31.2336 28.7966C31.4095 28.372 31.5001 27.9168 31.5001 27.4572C31.5001 26.9976 31.4096 26.5424 31.2337 26.1178C31.0578 25.6931 30.8 25.3073 30.475 24.9823ZM3.5 12C3.5 7.0375 7.5375 3 12.5 3C17.4625 3 21.5 7.0375 21.5 12C21.5 16.9625 17.4625 21 12.5 21C7.5375 21 3.5 16.9625 3.5 12ZM29.0607 28.5178C28.7792 28.7986 28.3977 28.9564 28 28.9564C27.6023 28.9564 27.2208 28.7986 26.9393 28.5178L22.1536 23.732L20.6602 20.1173L24.275 21.6107L29.0608 26.3964C29.3417 26.678 29.4994 27.0594 29.4994 27.4571C29.4993 27.8548 29.3416 28.2362 29.0607 28.5178Z" fill="#FFE537"/>
</svg>
