<svg width="84" height="60" viewBox="0 0 84 60" fill="none" xmlns="http://www.w3.org/2000/svg">
<path d="M79.4975 7.49948L61.7424 29.8292L60.9175 30.8416L39.8065 57.8022C39.1097 58.499 38.2825 59.0517 37.3721 59.4288C36.4617 59.8059 35.486 60 34.5006 60C33.5152 60 32.5395 59.8059 31.6291 59.4288C30.7187 59.0517 29.8915 58.499 29.1947 57.8022C28.4979 57.1055 27.9452 56.2783 27.5681 55.3679C27.191 54.4575 26.9969 53.4817 26.9969 52.4963C26.9969 51.511 27.191 50.5352 27.5681 49.6248C27.9452 48.7144 28.4979 47.8872 29.1947 47.1905L79.4975 7.49948ZM6.92126 19.6261C1.50489 28.3013 -0.443188 38.6991 1.46539 48.7466H4.50268V44.9969C4.46182 37.6136 6.6724 30.3932 10.8397 24.2983L6.92126 19.6261ZM42.0001 3.96533e-07C36.2653 -0.00079628 30.5938 1.19887 25.3505 3.52182C20.1072 5.84478 15.4083 9.23957 11.5559 13.4878L15.8456 18.5987C20.936 13.918 27.5855 11.2983 34.5006 11.2492C41.4529 11.2977 48.1361 13.9431 53.238 18.6662L66.5496 8.15943C59.4612 2.86201 50.8493 -0.000290859 42.0001 3.96533e-07ZM67.6108 34.4976L66.7371 35.5738L64.0073 39.061C64.3263 41.0237 64.4906 43.0084 64.4985 44.9969V48.7466H82.5347C84.3142 39.3625 82.7443 29.6515 78.0988 21.306L67.6108 34.4976Z" fill="#537FE7"/>
</svg>
