<svg width="32" height="40" viewBox="0 0 32 40" fill="none" xmlns="http://www.w3.org/2000/svg">
<path d="M4.57142 40C3.5238 40 2.62729 39.6273 1.8819 38.8819C1.1365 38.1365 0.763168 37.2394 0.761898 36.1905V17.1429C0.761898 16.0952 1.13523 15.1987 1.8819 14.4533C2.62856 13.7079 3.52507 13.3346 4.57142 13.3333H6.47618V9.52381C6.47618 6.88889 7.40508 4.64317 9.26285 2.78667C11.1206 0.930159 13.3663 0.00126984 16 0C18.6349 0 20.8813 0.928889 22.739 2.78667C24.5968 4.64444 25.5251 6.89016 25.5238 9.52381V13.3333H27.4286C28.4762 13.3333 29.3733 13.7067 30.12 14.4533C30.8667 15.2 31.2394 16.0965 31.2381 17.1429V36.1905C31.2381 37.2381 30.8654 38.1352 30.12 38.8819C29.3746 39.6286 28.4775 40.0013 27.4286 40H4.57142ZM10.2857 13.3333H21.7143V9.52381C21.7143 7.93651 21.1587 6.5873 20.0476 5.47619C18.9365 4.36508 17.5873 3.80952 16 3.80952C14.4127 3.80952 13.0635 4.36508 11.9524 5.47619C10.8413 6.5873 10.2857 7.93651 10.2857 9.52381V13.3333Z" fill="#537FE7"/>
</svg>
