<svg width="40" height="40" viewBox="0 0 40 40" fill="none" xmlns="http://www.w3.org/2000/svg">
<path d="M15.25 19.75H15H11.22H11.0757L11.0035 19.875C10.6641 20.4628 10.1403 20.9222 9.51318 21.182C8.8861 21.4417 8.19084 21.4873 7.53522 21.3116C6.8796 21.1359 6.30026 20.7488 5.88707 20.2103C5.47387 19.6719 5.24991 19.0121 5.24991 18.3333C5.24991 17.6546 5.47387 16.9948 5.88707 16.4563C6.30026 15.9178 6.8796 15.5307 7.53522 15.3551C8.19084 15.1794 8.8861 15.225 9.51318 15.4847C10.1403 15.7444 10.6641 16.2039 11.0035 16.7917L11.0757 16.9167H11.22H15H15.25V16.6667V8.33333C15.25 7.51558 15.5748 6.73132 16.1531 6.15309C16.7313 5.57485 17.5156 5.25 18.3333 5.25H31.6667C32.4844 5.25 33.2687 5.57485 33.8469 6.15309C34.4251 6.73132 34.75 7.51558 34.75 8.33333V31.6667C34.75 32.4844 34.4251 33.2687 33.8469 33.8469C33.2687 34.4251 32.4844 34.75 31.6667 34.75H18.3333C17.5156 34.75 16.7313 34.4251 16.1531 33.8469C15.5748 33.2687 15.25 32.4844 15.25 31.6667V20V19.75ZM18.3333 19.75H18.0833V20V31.6667V31.9167H18.3333H31.6667H31.9167V31.6667V8.33333V8.08333H31.6667H18.3333H18.0833V8.33333V16.6667V16.9167H18.3333H22.1133H22.2577L22.3298 16.7917C22.6692 16.2039 23.1931 15.7444 23.8201 15.4847C24.4472 15.225 25.1425 15.1794 25.7981 15.3551C26.4537 15.5307 27.0331 15.9178 27.4462 16.4563C27.8594 16.9948 28.0834 17.6546 28.0834 18.3333C28.0834 19.0121 27.8594 19.6719 27.4462 20.2103C27.0331 20.7488 26.4537 21.1359 25.7981 21.3116C25.1425 21.4873 24.4472 21.4417 23.8201 21.182C23.1931 20.9222 22.6692 20.4628 22.3298 19.875L22.2577 19.75H22.1133H18.3333Z" fill="#537FE7" stroke="black" stroke-width="0.5"/>
</svg>
